<svg width="113" height="113" viewBox="0 0 113 113" fill="none" xmlns="http://www.w3.org/2000/svg">
<path fill-rule="evenodd" clip-rule="evenodd" d="M56.4999 4.70837C27.8968 4.70837 4.70825 27.8969 4.70825 56.5C4.70825 85.1032 27.8968 108.292 56.4999 108.292C85.103 108.292 108.292 85.1032 108.292 56.5C108.292 27.8969 85.103 4.70837 56.4999 4.70837ZM78.9492 47.7425C79.3626 47.27 79.6773 46.7196 79.8748 46.1237C80.0724 45.5277 80.1487 44.8983 80.0994 44.2724C80.05 43.6465 79.876 43.0369 79.5876 42.4792C79.2991 41.9216 78.9021 41.4273 78.4198 41.0254C77.9375 40.6234 77.3797 40.322 76.7792 40.1389C76.1787 39.9557 75.5476 39.8945 74.9231 39.9589C74.2986 40.0232 73.6932 40.2118 73.1427 40.5135C72.5921 40.8153 72.1075 41.2241 71.7172 41.7159L51.4714 66.0062L40.9954 55.5254C40.1074 54.6678 38.918 54.1932 37.6835 54.2039C36.449 54.2146 35.2681 54.7098 34.3951 55.5828C33.5222 56.4557 33.027 57.6366 33.0163 58.8712C33.0056 60.1057 33.4801 61.295 34.3378 62.183L48.4628 76.308C48.9254 76.7703 49.4793 77.1312 50.0891 77.3677C50.6989 77.6041 51.3513 77.7109 52.0047 77.6812C52.6581 77.6515 53.2981 77.486 53.884 77.1953C54.4699 76.9045 54.9888 76.4949 55.4076 75.9925L78.9492 47.7425Z" fill="#99DD8E"/>
</svg>
