<svg width="24" height="24" viewBox="0 0 24 24" fill="none" xmlns="http://www.w3.org/2000/svg">
<path fill-rule="evenodd" clip-rule="evenodd" d="M19.5 4H4.5C4.36739 4 4.24021 4.05268 4.14645 4.14645C4.05268 4.24021 4 4.36739 4 4.5V19.5C4 19.6326 4.05268 19.7598 4.14645 19.8536C4.24021 19.9473 4.36739 20 4.5 20H19.5C19.6326 20 19.7598 19.9473 19.8536 19.8536C19.9473 19.7598 20 19.6326 20 19.5V4.5C20 4.36739 19.9473 4.24021 19.8536 4.14645C19.7598 4.05268 19.6326 4 19.5 4ZM4.5 3C4.10218 3 3.72064 3.15804 3.43934 3.43934C3.15804 3.72064 3 4.10218 3 4.5V19.5C3 19.8978 3.15804 20.2794 3.43934 20.5607C3.72064 20.842 4.10218 21 4.5 21H19.5C19.8978 21 20.2794 20.842 20.5607 20.5607C20.842 20.2794 21 19.8978 21 19.5V4.5C21 4.10218 20.842 3.72064 20.5607 3.43934C20.2794 3.15804 19.8978 3 19.5 3H4.5Z" fill="#7380F3"/>
<path fill-rule="evenodd" clip-rule="evenodd" d="M10.2445 8.165C9.423 8.307 8.8245 9.003 8.7265 9.831L8 16H16L15.272 9.8225C15.175 8.9985 14.582 8.304 13.765 8.161C12.54 7.9465 11.519 7.9445 10.2445 8.165ZM10.865 10.324C10.8781 10.1941 10.8399 10.0642 10.7585 9.96213C10.6772 9.86002 10.5591 9.7938 10.4296 9.77761C10.3 9.76141 10.1693 9.79653 10.0653 9.87546C9.96126 9.95439 9.89226 10.0709 9.873 10.2L9.4205 13.819C9.41067 13.8849 9.41412 13.9522 9.43065 14.0167C9.44718 14.0813 9.47645 14.1419 9.51675 14.195C9.55705 14.2481 9.60756 14.2926 9.6653 14.3259C9.72305 14.3592 9.78687 14.3806 9.85301 14.3889C9.91916 14.3972 9.98628 14.3921 10.0505 14.3741C10.1146 14.356 10.1745 14.3253 10.2267 14.2838C10.2788 14.2422 10.3221 14.1907 10.354 14.1322C10.3859 14.0736 10.4058 14.0093 10.4125 13.943L10.865 10.324Z" fill="#4457FF"/>
<path fill-rule="evenodd" clip-rule="evenodd" d="M11.237 9.0385C11.4581 9.19547 11.6325 9.40943 11.7417 9.65763C11.8508 9.90582 11.8907 10.179 11.857 10.448L11.405 14.067C11.358 14.442 11.177 14.767 10.915 15H14.875L14.279 9.9395C14.228 9.5045 13.927 9.2045 13.593 9.146C12.7575 9 12.038 8.9625 11.237 9.0385ZM15.272 9.8225C15.175 8.9985 14.582 8.304 13.765 8.161C12.54 7.9465 11.519 7.9445 10.2445 8.165C9.423 8.307 8.8245 9.003 8.7265 9.831L8 16H16L15.272 9.8225ZM10.865 10.324L10.4125 13.943C10.4058 14.0093 10.3859 14.0736 10.354 14.1322C10.3221 14.1907 10.2788 14.2422 10.2267 14.2838C10.1745 14.3253 10.1146 14.356 10.0505 14.3741C9.98628 14.3921 9.91916 14.3972 9.85301 14.3889C9.78687 14.3806 9.72305 14.3592 9.6653 14.3259C9.60756 14.2926 9.55705 14.2481 9.51675 14.195C9.47645 14.1419 9.44718 14.0813 9.43065 14.0167C9.41412 13.9522 9.41067 13.8849 9.4205 13.819L9.873 10.2C9.8797 10.1337 9.89959 10.0694 9.93151 10.0109C9.96343 9.95234 10.0067 9.90079 10.0588 9.85925C10.111 9.8177 10.1709 9.787 10.2351 9.76895C10.2992 9.7509 10.3663 9.74586 10.4325 9.75412C10.4986 9.76239 10.5624 9.7838 10.6202 9.81709C10.6779 9.85039 10.7285 9.89489 10.7687 9.94798C10.809 10.0011 10.8383 10.0617 10.8548 10.1263C10.8714 10.1908 10.8748 10.2581 10.865 10.324Z" fill="#7380F3"/>
<path fill-rule="evenodd" clip-rule="evenodd" d="M16.5 18H7.5V17H16.5V18Z" fill="#7380F3"/>
<path d="M6.5 12C6.5 12.1685 6.5075 12.335 6.5225 12.5H5V11.5H6.5225C6.5075 11.665 6.5 11.8315 6.5 12Z" fill="#7380F3"/>
<path d="M7.506 8.82802C7.31317 9.10085 7.14564 9.39072 7.0055 9.69402L5.688 8.93302L6.188 8.06702L7.506 8.82802Z" fill="#7380F3"/>
<path d="M9.6935 7.00499C9.389 7.14649 9.0995 7.31449 8.8285 7.50599L8.067 6.18799L8.933 5.68799L9.6935 7.00549V7.00499Z" fill="#7380F3"/>
<path d="M12 6.5C11.8315 6.5 11.665 6.5075 11.5 6.5225V5H12.5V6.5225C12.3338 6.50753 12.1669 6.50002 12 6.5Z" fill="#7380F3"/>
<path d="M15.172 7.50599C14.8992 7.31317 14.6093 7.14564 14.306 7.00549L15.067 5.68799L15.933 6.18799L15.172 7.50599Z" fill="#7380F3"/>
<path d="M16.995 9.69352C16.8547 9.39055 16.687 9.10101 16.494 8.82852L17.812 8.06702L18.312 8.93302L16.9945 9.69352H16.995Z" fill="#7380F3"/>
<path d="M17.5 12C17.5 11.8315 17.4925 11.665 17.4775 11.5H19V12.5H17.4775C17.4925 12.335 17.5 12.1685 17.5 12Z" fill="#7380F3"/>
</svg>
