<svg width="24" height="24" viewBox="0 0 24 24" fill="none" xmlns="http://www.w3.org/2000/svg">
<path d="M10 4H14V8H10V4ZM4 16H8V20H4V16ZM4 10H8V14H4V10ZM4 4H8V8H4V4ZM14 12.42V10H10V14H12.42L14 12.42ZM20.88 11.29L19.71 10.12C19.6719 10.0819 19.6267 10.0517 19.577 10.0311C19.5272 10.0104 19.4739 9.99983 19.42 9.99983C19.3661 9.99983 19.3128 10.0104 19.263 10.0311C19.2133 10.0517 19.1681 10.0819 19.13 10.12L18.25 11L20 12.75L20.88 11.87C20.9181 11.8319 20.9483 11.7867 20.9689 11.737C20.9896 11.6872 21.0002 11.6339 21.0002 11.58C21.0002 11.5261 20.9896 11.4728 20.9689 11.423C20.9483 11.3733 20.9181 11.3281 20.88 11.29V11.29ZM11 18.25V20H12.75L19.42 13.33L17.67 11.58L11 18.25ZM16 4H20V8H16V4Z" fill="#7380F3"/>
</svg>
